<?xml version="1.0" encoding="utf-8"?>
<!-- Generator: Adobe Illustrator 24.0.1, SVG Export Plug-In . SVG Version: 6.00 Build 0)  -->
<svg version="1.0" id="Layer_1" xmlns="http://www.w3.org/2000/svg" xmlns:xlink="http://www.w3.org/1999/xlink" x="0px" y="0px"
	 viewBox="0 0 512 512" style="enable-background:new 0 0 512 512;" xml:space="preserve">
<g>
	<path style="fill:#231F20;" d="M430.8,245.3h-55.5c-8.6,0-15.7,7-15.7,15.7v8.9c-10.1-3.5-29.6-10.1-50.3-16.1
		c-56-16-72.1-13.4-79.4-10c-5.2,2.4-13.5,9.5-22.3,18.7c-0.2,0-0.3,0-0.5,0l-58.3,3.9V261c0-8.6-7-15.7-15.7-15.7H77.5
		c-8.6,0-15.7,7-15.7,15.7v153.5c0,8.6,7,15.7,15.7,15.7h55.5c7.1,0,13.2-4.8,15.1-11.3c19.5,21.6,35.4,36.1,47.4,42.9
		c16.7,9.5,30.9,4.5,38.7,0.4l11.4,8.1c4.7,3.3,10.1,4.9,15.4,4.9c7.9,0,15.7-3.5,20.9-10.2c2.3-2.9,3.9-6.1,4.8-9.4
		c10.6,7.2,25.1,5.7,34-3.9c3.9-4.2,6.2-9.2,6.9-14.5c7.8,1.5,16.1-0.5,22.5-6.1c9.2-8,11.6-20.6,6.9-31.1l2.5-1.3v15.8
		c0,8.6,7,15.7,15.7,15.7h55.5c8.6,0,15.7-7,15.7-15.7V261C446.5,252.4,439.4,245.3,430.8,245.3z M133.7,414.5
		c0,0.4-0.3,0.7-0.7,0.7H77.5c-0.4,0-0.7-0.3-0.7-0.7V261c0-0.4,0.3-0.7,0.7-0.7h55.5c0.4,0,0.7,0.3,0.7,0.7V414.5z M340.4,419.8
		c-4.7,4.1-11.8,3.8-16.2-0.7l-7.2-7.5c-0.3-0.3-0.6-0.5-0.9-0.8l-34.7-38.4c-2.8-3.1-7.5-3.3-10.6-0.5c-3.1,2.8-3.3,7.5-0.5,10.6
		l35.2,39c0.2,0.2,0.4,0.4,0.6,0.6l0.5,0.5l4.6,5c2.8,4.3,2.4,10-1.3,13.9c-4.1,4.4-11,4.9-15.7,1l-11.7-9.8l-32-33.5
		c-2.9-3-7.6-3.1-10.6-0.3c-3,2.9-3.1,7.6-0.3,10.6l30.4,31.9c0.2,0.4,0.4,0.9,0.7,1.3c2.8,3.9,2.5,9-0.7,13.1
		c-3.8,4.9-10.8,5.9-15.8,2.3l-15.2-10.8l-19.9-15.4c-3.3-2.5-8-1.9-10.5,1.3c-2.5,3.3-1.9,8,1.3,10.5l10.2,7.9
		c-4.8,1.1-10.6,0.9-17.2-2.9c-8.8-5-25.3-18.1-54.3-52V281.5l44.7-3c-11.6,14.3-21.8,29.8-24.6,40.6c-2.7,10.3,3.8,20.2,16.5,25.1
		c20,7.7,48.7,1.7,62.5-24.7c2-3.9,5.8-6.6,10.1-7.3c4.7-0.7,8.3,0.5,11.5,3.9c12.8,13.4,70.3,85.1,70.8,85.8c0.3,0.4,0.6,0.7,1,1
		l0.4,0.5c0,0,0,0.1,0.1,0.1C345.8,408.5,345.2,415.6,340.4,419.8z M348.3,387.7l-24.9-31.2c-0.6-0.7-1.3-1.3-2-1.7
		c-16.3-20-34.3-41.8-41.1-48.9c-6.6-6.9-15.1-9.8-24.6-8.3c-9,1.4-16.9,7-21.1,15.1c-11,21-32.7,21.9-43.8,17.6
		c-4.2-1.6-8.1-4.5-7.4-7.3c4.7-17.8,41.8-60.4,52.8-65.4c2.8-1.3,16-4.3,69,10.8c24.8,7.1,47.8,15.2,54.5,17.6v96L348.3,387.7z
		 M431.5,414.5c0,0.4-0.3,0.7-0.7,0.7h-55.5c-0.4,0-0.7-0.3-0.7-0.7V261c0-0.4,0.3-0.7,0.7-0.7h55.5c0.4,0,0.7,0.3,0.7,0.7V414.5z"
		/>
	<path style="fill:#231F20;" d="M464,200.2c-1-7.1-4.7-13.5-10.4-17.9L272.3,44.2c-9.6-7.3-23.1-7.3-32.7,0l-78.3,59.6V69.2
		c0-3.9-3.1-7-7-7h-48.1c-3.9,0-7,3.1-7,7v81.9l-40.9,31.2c-5.7,4.4-9.4,10.7-10.4,17.9c-1,7.1,0.9,14.2,5.3,20
		c9,11.8,26,14.1,37.8,5.1L255.9,99.6l164.9,125.7c4.7,3.6,10.4,5.5,16.3,5.5c8.5,0,16.3-3.9,21.5-10.6
		C463,214.4,464.9,207.3,464,200.2z M113.2,76.2h34.1v38.3l-34.1,26V76.2z M447.5,211.7c-2.5,3.3-6.3,5.1-10.4,5.1
		c-2.9,0-5.6-0.9-7.9-2.7L260.2,85.3c-1.3-1-2.7-1.4-4.2-1.4s-3,0.5-4.2,1.4L82.5,214.1c-5.7,4.3-13.9,3.2-18.2-2.5
		c-2.1-2.8-3-6.2-2.5-9.6c0.5-3.4,2.2-6.5,5-8.6L248,55.3c4.6-3.5,11.1-3.5,15.8,0l181.3,138.1c2.8,2.1,4.5,5.2,5,8.6
		S449.6,208.9,447.5,211.7z"/>
	<path style="fill:#231F20;" d="M287.2,224.8c4.1,0,7.5-3.4,7.5-7.5v-62.6c0-4.1-3.4-7.5-7.5-7.5h-62.6c-4.1,0-7.5,3.4-7.5,7.5v62.6
		c0,4.1,3.4,7.5,7.5,7.5H287.2z M232.1,162.2h47.6v47.6h-47.6V162.2z"/>
</g>
</svg>
